<svg xmlns="http://www.w3.org/2000/svg" xmlns:xlink="http://www.w3.org/1999/xlink" width="693.569" height="589.629" viewBox="0 0 693.569 589.629">
  <defs>
    <linearGradient id="linear-gradient" x1="1.129" y1="0.18" x2="0" y2="0.186" gradientUnits="objectBoundingBox">
      <stop offset="0" stop-color="#f84c33"/>
      <stop offset="1" stop-color="#c50138"/>
    </linearGradient>
  </defs>
  <path id="Path_1" data-name="Path 1" d="M89.88-4.426A76.938,76.938,0,0,1,60.161,1.445q-25.022,0-38.436-14.95T8.311-57.722a83.253,83.253,0,0,1,3.7-25.654,55.768,55.768,0,0,1,10.569-19.467A46.532,46.532,0,0,1,39.2-115.173a53.259,53.259,0,0,1,21.86-4.336,78.355,78.355,0,0,1,15.266,1.4,63.94,63.94,0,0,1,13.55,4.291V-98.01A59.918,59.918,0,0,0,76.6-103.385a57.459,57.459,0,0,0-15-1.852,35.37,35.37,0,0,0-15.04,3.116,31.117,31.117,0,0,0-11.427,9.033,42.286,42.286,0,0,0-7.227,14.453,68.572,68.572,0,0,0-2.529,19.467q0,22.944,9.3,34.6t27.28,11.653a59.024,59.024,0,0,0,14.543-1.761A67.791,67.791,0,0,0,89.88-19.6Zm108.76-21.68H178.5V0H162.417V-26.106H105.6V-39.927l50.315-78.137H178.5v78.137H198.64Zm-36.223-76.782-41.1,62.961h41.1ZM295.386-46.973A60.094,60.094,0,0,1,292-25.835a41.411,41.411,0,0,1-9.349,15A38.32,38.32,0,0,1,268.557-1.9a50.785,50.785,0,0,1-17.615,2.981,82.35,82.35,0,0,1-8.627-.452A65.434,65.434,0,0,1,233.6-.9V37.036H217.881V-90.693h14l.994,15.176q6.775-9.3,14.453-13.053a37.374,37.374,0,0,1,16.621-3.749,27.7,27.7,0,0,1,13.64,3.252,28.307,28.307,0,0,1,9.846,9.169A43.374,43.374,0,0,1,293.4-65.626,80.748,80.748,0,0,1,295.386-46.973Zm-16.079.723a76.509,76.509,0,0,0-1.039-13.1,34.178,34.178,0,0,0-3.3-10.208,18.113,18.113,0,0,0-5.781-6.639,14.586,14.586,0,0,0-8.4-2.394,20.437,20.437,0,0,0-6.052.948,24.544,24.544,0,0,0-6.368,3.162,47.446,47.446,0,0,0-6.956,5.872,92.511,92.511,0,0,0-7.814,9.078v43.992a52.747,52.747,0,0,0,9.124,2.845,44.225,44.225,0,0,0,9.395,1.039q12.737,0,19.963-8.627T279.307-46.25ZM392.673-1.265A76.555,76.555,0,0,1,381.653.677a112.6,112.6,0,0,1-11.562.587q-17.073,0-25.474-7.723t-8.4-23.712V-77.5H310.833V-90.693h25.383v-24.932l15.718-4.065v29h40.74V-77.5h-40.74v46.069q0,9.756,5.194,14.589t15.311,4.833a73.1,73.1,0,0,0,9.485-.677,90.183,90.183,0,0,0,10.75-2.123ZM494.207,0H480.115l-.542-14.634a73.206,73.206,0,0,1-7.723,7.814,39.924,39.924,0,0,1-7.272,5.013A28,28,0,0,1,457.306.858a37.534,37.534,0,0,1-7.723.768q-14,0-21.138-8.22t-7.136-24.841V-90.693h15.718V-32.7q0,20.867,15.718,20.867a18.877,18.877,0,0,0,5.646-.858,21.2,21.2,0,0,0,5.781-2.981,45.741,45.741,0,0,0,6.5-5.736q3.478-3.613,7.814-9.124V-90.693h15.718Zm32.52-90.693h14.363l.452,16.711q8.04-9.666,15.853-14a32.19,32.19,0,0,1,15.763-4.336q14.092,0,21.364,9.124t6.73,27.1h-15.9q.271-11.924-3.478-17.3T570.9-78.77a19.078,19.078,0,0,0-6.368,1.129,25.73,25.73,0,0,0-6.594,3.613,59.073,59.073,0,0,0-7.181,6.368,117.579,117.579,0,0,0-8.13,9.395V0h-15.9ZM701.338-50.134q0,3.342-.09,5.6t-.271,4.246H637.292q0,13.911,7.769,21.364t22.4,7.452q3.975,0,7.949-.316t7.678-.858q3.7-.542,7.091-1.219t6.278-1.49V-2.439A109.725,109.725,0,0,1,681.962.5a121.062,121.062,0,0,1-16.757,1.129,56.981,56.981,0,0,1-20.054-3.162A34.324,34.324,0,0,1,631.376-10.7a37.749,37.749,0,0,1-7.949-14.724,69.681,69.681,0,0,1-2.574-19.738,58.611,58.611,0,0,1,2.755-18.112,45.465,45.465,0,0,1,8.04-15,38.647,38.647,0,0,1,12.963-10.253,38.839,38.839,0,0,1,17.434-3.794,44.252,44.252,0,0,1,16.8,2.981,33.738,33.738,0,0,1,12.33,8.446,36.01,36.01,0,0,1,7.588,13.279A55.668,55.668,0,0,1,701.338-50.134Zm-16.35-2.258a34.264,34.264,0,0,0-1.174-11.066,23.293,23.293,0,0,0-4.471-8.627,20.827,20.827,0,0,0-7.543-5.646,25.316,25.316,0,0,0-10.479-2.032,21.886,21.886,0,0,0-9.395,1.987,21.425,21.425,0,0,0-7.317,5.6,28.93,28.93,0,0,0-4.968,8.672,39.982,39.982,0,0,0-2.349,11.111ZM93.945,111.667H58.987V216H42.727V111.667H7.769V97.936H93.945ZM189.065,216H173.347V158.1q0-10.479-3.929-15.673t-11.246-5.194a19.794,19.794,0,0,0-5.917.858,20.577,20.577,0,0,0-5.736,2.981,49.3,49.3,0,0,0-6.5,5.736q-3.523,3.613-8.13,9.033V216H116.167V88.361h15.718v36.946l-.542,14.272a61.48,61.48,0,0,1,7.272-7.452,40.5,40.5,0,0,1,7.136-4.923,28.45,28.45,0,0,1,7.272-2.71,35.712,35.712,0,0,1,7.678-.813q13.55,0,20.957,8.265t7.407,24.886Zm105.417-50.134q0,3.342-.09,5.6t-.271,4.246H230.437q0,13.911,7.769,21.364t22.4,7.452q3.975,0,7.949-.316t7.678-.858q3.7-.542,7.091-1.219t6.278-1.49v12.917a109.727,109.727,0,0,1-14.5,2.936,121.062,121.062,0,0,1-16.757,1.129,56.981,56.981,0,0,1-20.054-3.162A34.324,34.324,0,0,1,224.52,205.3a37.75,37.75,0,0,1-7.949-14.724A69.681,69.681,0,0,1,214,170.834a58.611,58.611,0,0,1,2.755-18.112,45.466,45.466,0,0,1,8.04-15,38.1,38.1,0,0,1,30.4-14.047,44.252,44.252,0,0,1,16.8,2.981,33.738,33.738,0,0,1,12.33,8.446,36.01,36.01,0,0,1,7.588,13.279A55.668,55.668,0,0,1,294.482,165.866Zm-16.35-2.258a34.265,34.265,0,0,0-1.174-11.066,23.292,23.292,0,0,0-4.471-8.627,20.827,20.827,0,0,0-7.543-5.646,25.316,25.316,0,0,0-10.479-2.032,21.886,21.886,0,0,0-9.395,1.987,21.424,21.424,0,0,0-7.317,5.6,28.931,28.931,0,0,0-4.968,8.672,39.983,39.983,0,0,0-2.349,11.111ZM85.093,327.667H34.958v38.3H82.473v13.459H34.958V432H18.518V313.936H85.093Zm61.968-10.388H120.232V304.361h42.727V418.9h27.009V432H117.251V418.9h29.81Zm153.293,88.616H280.21V432H264.131V405.894H207.312V392.073l50.315-78.137H280.21v78.137h20.144Zm-36.223-76.782-41.1,62.961h41.1ZM384.9,354.134a23.617,23.617,0,0,1,3.929,7.362,28.539,28.539,0,0,1,1.4,9.078,31.5,31.5,0,0,1-2.574,12.872,28.582,28.582,0,0,1-7.272,9.982,33.559,33.559,0,0,1-11.246,6.459,43.166,43.166,0,0,1-14.408,2.3,44.616,44.616,0,0,1-10.659-1.219,27.269,27.269,0,0,1-7.859-3.026,48.219,48.219,0,0,0-2.891,4.788,10.8,10.8,0,0,0-1.174,5.059,6.7,6.7,0,0,0,3.3,5.691,16.143,16.143,0,0,0,8.717,2.439l23.848.9a53.87,53.87,0,0,1,12.511,1.716,30.81,30.81,0,0,1,9.846,4.426,20.742,20.742,0,0,1,6.414,7.136,20.326,20.326,0,0,1,2.3,9.846,25.571,25.571,0,0,1-10.7,21,42.7,42.7,0,0,1-13.866,6.549,72.111,72.111,0,0,1-19.963,2.439,85.607,85.607,0,0,1-18.744-1.761,41.068,41.068,0,0,1-12.692-4.878,19.7,19.7,0,0,1-7.227-7.407,19.954,19.954,0,0,1-2.258-9.44,21.538,21.538,0,0,1,3.071-11.562,34.673,34.673,0,0,1,9.485-9.575,14.9,14.9,0,0,1-6.865-6.278,16.713,16.713,0,0,1-1.626-4.11,17.467,17.467,0,0,1-.542-4.246,21.479,21.479,0,0,1,2.755-10.75,55.189,55.189,0,0,1,6.549-9.214,47.179,47.179,0,0,1-3.026-4.065,24.928,24.928,0,0,1-3.7-9.259,33.516,33.516,0,0,1-.5-6.1,31.5,31.5,0,0,1,2.574-12.872,28.845,28.845,0,0,1,7.227-9.982,33.052,33.052,0,0,1,11.2-6.459,43.454,43.454,0,0,1,14.5-2.3,44.058,44.058,0,0,1,6.414.452,36.726,36.726,0,0,1,5.42,1.174h32.881v12.827ZM330.344,445.1q0,6.414,6.685,9.349t18.608,2.936a49.912,49.912,0,0,0,12.6-1.355,25.463,25.463,0,0,0,8.22-3.568,12.986,12.986,0,0,0,5.826-10.885,8.747,8.747,0,0,0-4.517-8.13q-4.517-2.62-13.821-3.071l-23.667-.813a34.249,34.249,0,0,0-4.923,3.884,17.066,17.066,0,0,0-3.026,3.839,14.9,14.9,0,0,0-1.536,3.884A17.291,17.291,0,0,0,330.344,445.1Zm4.788-74.163a21.218,21.218,0,0,0,1.445,7.949,17.388,17.388,0,0,0,4.065,6.143,18.559,18.559,0,0,0,6.188,3.929,21.467,21.467,0,0,0,7.9,1.4,20.886,20.886,0,0,0,8.356-1.581,17.757,17.757,0,0,0,6.143-4.291,18.848,18.848,0,0,0,3.794-6.233,20.829,20.829,0,0,0,1.31-7.317,21.218,21.218,0,0,0-1.445-7.949,17.388,17.388,0,0,0-4.065-6.143,18.559,18.559,0,0,0-6.188-3.929,21.467,21.467,0,0,0-7.9-1.4,20.38,20.38,0,0,0-8.356,1.626,18.6,18.6,0,0,0-6.143,4.291,18.35,18.35,0,0,0-3.794,6.188A20.829,20.829,0,0,0,335.132,370.936Z" transform="translate(-7.769 119.69)" fill="url(#linear-gradient)"/>
</svg>
